<svg xmlns="http://www.w3.org/2000/svg" viewBox="0 0 120 120" shape-rendering="crispEdges">
  <title>@kimtoma monochrome profile mark</title>
  <desc>Approved face-only Xteink X4 boot and default sleep mark, including two distinct nostrils.</desc>
  <rect width="120" height="120" fill="#ffffff"/>
  <rect x="58" y="13" width="12" height="1" fill="#000000"/>
  <rect x="54" y="14" width="20" height="1" fill="#000000"/>
  <rect x="52" y="15" width="25" height="1" fill="#000000"/>
  <rect x="49" y="16" width="30" height="1" fill="#000000"/>
  <rect x="38" y="17" width="3" height="1" fill="#000000"/>
  <rect x="47" y="17" width="33" height="1" fill="#000000"/>
  <rect x="37" y="18" width="5" height="1" fill="#000000"/>
  <rect x="46" y="18" width="36" height="1" fill="#000000"/>
  <rect x="37" y="19" width="5" height="1" fill="#000000"/>
  <rect x="44" y="19" width="39" height="1" fill="#000000"/>
  <rect x="37" y="20" width="47" height="1" fill="#000000"/>
  <rect x="36" y="21" width="49" height="1" fill="#000000"/>
  <rect x="32" y="22" width="54" height="1" fill="#000000"/>
  <rect x="31" y="23" width="56" height="1" fill="#000000"/>
  <rect x="31" y="24" width="56" height="1" fill="#000000"/>
  <rect x="31" y="25" width="57" height="1" fill="#000000"/>
  <rect x="31" y="26" width="58" height="1" fill="#000000"/>
  <rect x="28" y="27" width="65" height="1" fill="#000000"/>
  <rect x="26" y="28" width="69" height="1" fill="#000000"/>
  <rect x="25" y="29" width="71" height="1" fill="#000000"/>
  <rect x="23" y="30" width="74" height="1" fill="#000000"/>
  <rect x="22" y="31" width="76" height="1" fill="#000000"/>
  <rect x="21" y="32" width="78" height="1" fill="#000000"/>
  <rect x="21" y="33" width="79" height="1" fill="#000000"/>
  <rect x="20" y="34" width="80" height="1" fill="#000000"/>
  <rect x="20" y="35" width="81" height="1" fill="#000000"/>
  <rect x="19" y="36" width="82" height="1" fill="#000000"/>
  <rect x="19" y="37" width="83" height="1" fill="#000000"/>
  <rect x="18" y="38" width="84" height="1" fill="#000000"/>
  <rect x="18" y="39" width="84" height="1" fill="#000000"/>
  <rect x="18" y="40" width="84" height="1" fill="#000000"/>
  <rect x="18" y="41" width="85" height="1" fill="#000000"/>
  <rect x="18" y="42" width="85" height="1" fill="#000000"/>
  <rect x="18" y="43" width="18" height="1" fill="#000000"/>
  <rect x="37" y="43" width="66" height="1" fill="#000000"/>
  <rect x="18" y="44" width="17" height="1" fill="#000000"/>
  <rect x="38" y="44" width="17" height="1" fill="#000000"/>
  <rect x="57" y="44" width="46" height="1" fill="#000000"/>
  <rect x="18" y="45" width="16" height="1" fill="#000000"/>
  <rect x="39" y="45" width="16" height="1" fill="#000000"/>
  <rect x="58" y="45" width="45" height="1" fill="#000000"/>
  <rect x="18" y="46" width="15" height="1" fill="#000000"/>
  <rect x="41" y="46" width="15" height="1" fill="#000000"/>
  <rect x="60" y="46" width="43" height="1" fill="#000000"/>
  <rect x="18" y="47" width="14" height="1" fill="#000000"/>
  <rect x="42" y="47" width="14" height="1" fill="#000000"/>
  <rect x="62" y="47" width="31" height="1" fill="#000000"/>
  <rect x="94" y="47" width="9" height="1" fill="#000000"/>
  <rect x="18" y="48" width="12" height="1" fill="#000000"/>
  <rect x="45" y="48" width="10" height="1" fill="#000000"/>
  <rect x="65" y="48" width="25" height="1" fill="#000000"/>
  <rect x="95" y="48" width="8" height="1" fill="#000000"/>
  <rect x="18" y="49" width="10" height="1" fill="#000000"/>
  <rect x="49" y="49" width="4" height="1" fill="#000000"/>
  <rect x="68" y="49" width="19" height="1" fill="#000000"/>
  <rect x="95" y="49" width="8" height="1" fill="#000000"/>
  <rect x="18" y="50" width="8" height="1" fill="#000000"/>
  <rect x="72" y="50" width="11" height="1" fill="#000000"/>
  <rect x="95" y="50" width="8" height="1" fill="#000000"/>
  <rect x="18" y="51" width="8" height="1" fill="#000000"/>
  <rect x="95" y="51" width="8" height="1" fill="#000000"/>
  <rect x="18" y="52" width="8" height="1" fill="#000000"/>
  <rect x="94" y="52" width="9" height="1" fill="#000000"/>
  <rect x="18" y="53" width="34" height="1" fill="#000000"/>
  <rect x="70" y="53" width="33" height="1" fill="#000000"/>
  <rect x="18" y="54" width="36" height="1" fill="#000000"/>
  <rect x="68" y="54" width="35" height="1" fill="#000000"/>
  <rect x="18" y="55" width="37" height="1" fill="#000000"/>
  <rect x="67" y="55" width="36" height="1" fill="#000000"/>
  <rect x="18" y="56" width="7" height="1" fill="#000000"/>
  <rect x="26" y="56" width="8" height="1" fill="#000000"/>
  <rect x="50" y="56" width="6" height="1" fill="#000000"/>
  <rect x="66" y="56" width="6" height="1" fill="#000000"/>
  <rect x="87" y="56" width="8" height="1" fill="#000000"/>
  <rect x="96" y="56" width="7" height="1" fill="#000000"/>
  <rect x="18" y="57" width="6" height="1" fill="#000000"/>
  <rect x="26" y="57" width="6" height="1" fill="#000000"/>
  <rect x="52" y="57" width="5" height="1" fill="#000000"/>
  <rect x="65" y="57" width="5" height="1" fill="#000000"/>
  <rect x="89" y="57" width="6" height="1" fill="#000000"/>
  <rect x="97" y="57" width="6" height="1" fill="#000000"/>
  <rect x="18" y="58" width="6" height="1" fill="#000000"/>
  <rect x="26" y="58" width="5" height="1" fill="#000000"/>
  <rect x="53" y="58" width="4" height="1" fill="#000000"/>
  <rect x="64" y="58" width="5" height="1" fill="#000000"/>
  <rect x="90" y="58" width="5" height="1" fill="#000000"/>
  <rect x="96" y="58" width="7" height="1" fill="#000000"/>
  <rect x="18" y="59" width="12" height="1" fill="#000000"/>
  <rect x="54" y="59" width="4" height="1" fill="#000000"/>
  <rect x="64" y="59" width="4" height="1" fill="#000000"/>
  <rect x="91" y="59" width="12" height="1" fill="#000000"/>
  <rect x="16" y="60" width="13" height="1" fill="#000000"/>
  <rect x="54" y="60" width="4" height="1" fill="#000000"/>
  <rect x="63" y="60" width="4" height="1" fill="#000000"/>
  <rect x="92" y="60" width="13" height="1" fill="#000000"/>
  <rect x="13" y="61" width="8" height="1" fill="#000000"/>
  <rect x="22" y="61" width="7" height="1" fill="#000000"/>
  <rect x="55" y="61" width="3" height="1" fill="#000000"/>
  <rect x="63" y="61" width="4" height="1" fill="#000000"/>
  <rect x="92" y="61" width="15" height="1" fill="#000000"/>
  <rect x="12" y="62" width="9" height="1" fill="#000000"/>
  <rect x="25" y="62" width="4" height="1" fill="#000000"/>
  <rect x="55" y="62" width="4" height="1" fill="#000000"/>
  <rect x="63" y="62" width="3" height="1" fill="#000000"/>
  <rect x="92" y="62" width="4" height="1" fill="#000000"/>
  <rect x="100" y="62" width="8" height="1" fill="#000000"/>
  <rect x="11" y="63" width="5" height="1" fill="#000000"/>
  <rect x="25" y="63" width="4" height="1" fill="#000000"/>
  <rect x="55" y="63" width="4" height="1" fill="#000000"/>
  <rect x="63" y="63" width="3" height="1" fill="#000000"/>
  <rect x="92" y="63" width="4" height="1" fill="#000000"/>
  <rect x="104" y="63" width="5" height="1" fill="#000000"/>
  <rect x="10" y="64" width="4" height="1" fill="#000000"/>
  <rect x="25" y="64" width="4" height="1" fill="#000000"/>
  <rect x="55" y="64" width="4" height="1" fill="#000000"/>
  <rect x="63" y="64" width="3" height="1" fill="#000000"/>
  <rect x="92" y="64" width="4" height="1" fill="#000000"/>
  <rect x="106" y="64" width="4" height="1" fill="#000000"/>
  <rect x="10" y="65" width="3" height="1" fill="#000000"/>
  <rect x="25" y="65" width="4" height="1" fill="#000000"/>
  <rect x="55" y="65" width="11" height="1" fill="#000000"/>
  <rect x="92" y="65" width="4" height="1" fill="#000000"/>
  <rect x="107" y="65" width="4" height="1" fill="#000000"/>
  <rect x="9" y="66" width="4" height="1" fill="#000000"/>
  <rect x="25" y="66" width="4" height="1" fill="#000000"/>
  <rect x="55" y="66" width="11" height="1" fill="#000000"/>
  <rect x="92" y="66" width="4" height="1" fill="#000000"/>
  <rect x="108" y="66" width="3" height="1" fill="#000000"/>
  <rect x="9" y="67" width="3" height="1" fill="#000000"/>
  <rect x="25" y="67" width="4" height="1" fill="#000000"/>
  <rect x="55" y="67" width="11" height="1" fill="#000000"/>
  <rect x="92" y="67" width="4" height="1" fill="#000000"/>
  <rect x="108" y="67" width="3" height="1" fill="#000000"/>
  <rect x="9" y="68" width="3" height="1" fill="#000000"/>
  <rect x="25" y="68" width="71" height="1" fill="#000000"/>
  <rect x="108" y="68" width="3" height="1" fill="#000000"/>
  <rect x="9" y="69" width="3" height="1" fill="#000000"/>
  <rect x="25" y="69" width="71" height="1" fill="#000000"/>
  <rect x="108" y="69" width="3" height="1" fill="#000000"/>
  <rect x="9" y="70" width="3" height="1" fill="#000000"/>
  <rect x="25" y="70" width="35" height="1" fill="#000000"/>
  <rect x="62" y="70" width="34" height="1" fill="#000000"/>
  <rect x="108" y="70" width="3" height="1" fill="#000000"/>
  <rect x="9" y="71" width="3" height="1" fill="#000000"/>
  <rect x="25" y="71" width="4" height="1" fill="#000000"/>
  <rect x="38" y="71" width="13" height="1" fill="#000000"/>
  <rect x="55" y="71" width="3" height="1" fill="#000000"/>
  <rect x="63" y="71" width="3" height="1" fill="#000000"/>
  <rect x="70" y="71" width="13" height="1" fill="#000000"/>
  <rect x="92" y="71" width="4" height="1" fill="#000000"/>
  <rect x="108" y="71" width="3" height="1" fill="#000000"/>
  <rect x="9" y="72" width="3" height="1" fill="#000000"/>
  <rect x="25" y="72" width="4" height="1" fill="#000000"/>
  <rect x="38" y="72" width="13" height="1" fill="#000000"/>
  <rect x="55" y="72" width="3" height="1" fill="#000000"/>
  <rect x="63" y="72" width="3" height="1" fill="#000000"/>
  <rect x="70" y="72" width="13" height="1" fill="#000000"/>
  <rect x="92" y="72" width="4" height="1" fill="#000000"/>
  <rect x="108" y="72" width="3" height="1" fill="#000000"/>
  <rect x="9" y="73" width="4" height="1" fill="#000000"/>
  <rect x="26" y="73" width="3" height="1" fill="#000000"/>
  <rect x="39" y="73" width="11" height="1" fill="#000000"/>
  <rect x="54" y="73" width="4" height="1" fill="#000000"/>
  <rect x="63" y="73" width="4" height="1" fill="#000000"/>
  <rect x="71" y="73" width="11" height="1" fill="#000000"/>
  <rect x="92" y="73" width="3" height="1" fill="#000000"/>
  <rect x="107" y="73" width="4" height="1" fill="#000000"/>
  <rect x="10" y="74" width="4" height="1" fill="#000000"/>
  <rect x="26" y="74" width="4" height="1" fill="#000000"/>
  <rect x="39" y="74" width="11" height="1" fill="#000000"/>
  <rect x="54" y="74" width="4" height="1" fill="#000000"/>
  <rect x="63" y="74" width="4" height="1" fill="#000000"/>
  <rect x="71" y="74" width="11" height="1" fill="#000000"/>
  <rect x="91" y="74" width="4" height="1" fill="#000000"/>
  <rect x="106" y="74" width="4" height="1" fill="#000000"/>
  <rect x="11" y="75" width="4" height="1" fill="#000000"/>
  <rect x="26" y="75" width="4" height="1" fill="#000000"/>
  <rect x="40" y="75" width="9" height="1" fill="#000000"/>
  <rect x="53" y="75" width="4" height="1" fill="#000000"/>
  <rect x="64" y="75" width="4" height="1" fill="#000000"/>
  <rect x="72" y="75" width="9" height="1" fill="#000000"/>
  <rect x="91" y="75" width="4" height="1" fill="#000000"/>
  <rect x="105" y="75" width="5" height="1" fill="#000000"/>
  <rect x="11" y="76" width="9" height="1" fill="#000000"/>
  <rect x="27" y="76" width="4" height="1" fill="#000000"/>
  <rect x="42" y="76" width="5" height="1" fill="#000000"/>
  <rect x="53" y="76" width="4" height="1" fill="#000000"/>
  <rect x="64" y="76" width="4" height="1" fill="#000000"/>
  <rect x="73" y="76" width="6" height="1" fill="#000000"/>
  <rect x="90" y="76" width="4" height="1" fill="#000000"/>
  <rect x="100" y="76" width="9" height="1" fill="#000000"/>
  <rect x="13" y="77" width="8" height="1" fill="#000000"/>
  <rect x="27" y="77" width="5" height="1" fill="#000000"/>
  <rect x="52" y="77" width="4" height="1" fill="#000000"/>
  <rect x="65" y="77" width="4" height="1" fill="#000000"/>
  <rect x="89" y="77" width="5" height="1" fill="#000000"/>
  <rect x="100" y="77" width="8" height="1" fill="#000000"/>
  <rect x="14" y="78" width="7" height="1" fill="#000000"/>
  <rect x="28" y="78" width="5" height="1" fill="#000000"/>
  <rect x="51" y="78" width="5" height="1" fill="#000000"/>
  <rect x="65" y="78" width="5" height="1" fill="#000000"/>
  <rect x="88" y="78" width="5" height="1" fill="#000000"/>
  <rect x="100" y="78" width="6" height="1" fill="#000000"/>
  <rect x="18" y="79" width="3" height="1" fill="#000000"/>
  <rect x="29" y="79" width="5" height="1" fill="#000000"/>
  <rect x="50" y="79" width="5" height="1" fill="#000000"/>
  <rect x="66" y="79" width="5" height="1" fill="#000000"/>
  <rect x="87" y="79" width="5" height="1" fill="#000000"/>
  <rect x="100" y="79" width="3" height="1" fill="#000000"/>
  <rect x="18" y="80" width="3" height="1" fill="#000000"/>
  <rect x="30" y="80" width="6" height="1" fill="#000000"/>
  <rect x="48" y="80" width="6" height="1" fill="#000000"/>
  <rect x="67" y="80" width="6" height="1" fill="#000000"/>
  <rect x="85" y="80" width="6" height="1" fill="#000000"/>
  <rect x="100" y="80" width="3" height="1" fill="#000000"/>
  <rect x="18" y="81" width="3" height="1" fill="#000000"/>
  <rect x="31" y="81" width="22" height="1" fill="#000000"/>
  <rect x="68" y="81" width="22" height="1" fill="#000000"/>
  <rect x="100" y="81" width="3" height="1" fill="#000000"/>
  <rect x="18" y="82" width="3" height="1" fill="#000000"/>
  <rect x="32" y="82" width="20" height="1" fill="#000000"/>
  <rect x="69" y="82" width="20" height="1" fill="#000000"/>
  <rect x="100" y="82" width="3" height="1" fill="#000000"/>
  <rect x="18" y="83" width="3" height="1" fill="#000000"/>
  <rect x="34" y="83" width="16" height="1" fill="#000000"/>
  <rect x="71" y="83" width="16" height="1" fill="#000000"/>
  <rect x="100" y="83" width="3" height="1" fill="#000000"/>
  <rect x="18" y="84" width="3" height="1" fill="#000000"/>
  <rect x="37" y="84" width="10" height="1" fill="#000000"/>
  <rect x="56" y="84" width="3" height="1" fill="#000000"/>
  <rect x="61" y="84" width="3" height="1" fill="#000000"/>
  <rect x="74" y="84" width="10" height="1" fill="#000000"/>
  <rect x="100" y="84" width="3" height="1" fill="#000000"/>
  <rect x="18" y="85" width="3" height="1" fill="#000000"/>
  <rect x="56" y="85" width="3" height="1" fill="#000000"/>
  <rect x="61" y="85" width="4" height="1" fill="#000000"/>
  <rect x="100" y="85" width="3" height="1" fill="#000000"/>
  <rect x="18" y="86" width="3" height="1" fill="#000000"/>
  <rect x="51" y="86" width="2" height="1" fill="#000000"/>
  <rect x="57" y="86" width="1" height="1" fill="#000000"/>
  <rect x="100" y="86" width="3" height="1" fill="#000000"/>
  <rect x="18" y="87" width="3" height="1" fill="#000000"/>
  <rect x="50" y="87" width="4" height="1" fill="#000000"/>
  <rect x="100" y="87" width="3" height="1" fill="#000000"/>
  <rect x="18" y="88" width="3" height="1" fill="#000000"/>
  <rect x="51" y="88" width="4" height="1" fill="#000000"/>
  <rect x="100" y="88" width="3" height="1" fill="#000000"/>
  <rect x="18" y="89" width="3" height="1" fill="#000000"/>
  <rect x="51" y="89" width="6" height="1" fill="#000000"/>
  <rect x="100" y="89" width="3" height="1" fill="#000000"/>
  <rect x="18" y="90" width="3" height="1" fill="#000000"/>
  <rect x="52" y="90" width="8" height="1" fill="#000000"/>
  <rect x="99" y="90" width="4" height="1" fill="#000000"/>
  <rect x="18" y="91" width="3" height="1" fill="#000000"/>
  <rect x="53" y="91" width="12" height="1" fill="#000000"/>
  <rect x="99" y="91" width="3" height="1" fill="#000000"/>
  <rect x="18" y="92" width="3" height="1" fill="#000000"/>
  <rect x="55" y="92" width="11" height="1" fill="#000000"/>
  <rect x="99" y="92" width="3" height="1" fill="#000000"/>
  <rect x="19" y="93" width="3" height="1" fill="#000000"/>
  <rect x="57" y="93" width="8" height="1" fill="#000000"/>
  <rect x="99" y="93" width="3" height="1" fill="#000000"/>
  <rect x="19" y="94" width="3" height="1" fill="#000000"/>
  <rect x="62" y="94" width="2" height="1" fill="#000000"/>
  <rect x="98" y="94" width="4" height="1" fill="#000000"/>
  <rect x="19" y="95" width="4" height="1" fill="#000000"/>
  <rect x="98" y="95" width="3" height="1" fill="#000000"/>
  <rect x="20" y="96" width="3" height="1" fill="#000000"/>
  <rect x="98" y="96" width="3" height="1" fill="#000000"/>
  <rect x="20" y="97" width="4" height="1" fill="#000000"/>
  <rect x="97" y="97" width="4" height="1" fill="#000000"/>
  <rect x="21" y="98" width="4" height="1" fill="#000000"/>
  <rect x="96" y="98" width="4" height="1" fill="#000000"/>
  <rect x="21" y="99" width="4" height="1" fill="#000000"/>
  <rect x="95" y="99" width="4" height="1" fill="#000000"/>
  <rect x="22" y="100" width="5" height="1" fill="#000000"/>
  <rect x="94" y="100" width="5" height="1" fill="#000000"/>
  <rect x="23" y="101" width="5" height="1" fill="#000000"/>
  <rect x="93" y="101" width="5" height="1" fill="#000000"/>
  <rect x="24" y="102" width="6" height="1" fill="#000000"/>
  <rect x="91" y="102" width="6" height="1" fill="#000000"/>
  <rect x="25" y="103" width="7" height="1" fill="#000000"/>
  <rect x="89" y="103" width="7" height="1" fill="#000000"/>
  <rect x="27" y="104" width="67" height="1" fill="#000000"/>
  <rect x="28" y="105" width="65" height="1" fill="#000000"/>
  <rect x="31" y="106" width="59" height="1" fill="#000000"/>
</svg>
